<svg width="100" height="30" viewBox="0 0 100 30" fill="none" xmlns="http://www.w3.org/2000/svg">
<path d="M23.6045 22.0172L22.3448 7.8319C22.3178 7.51697 22.0524 7.27853 21.7419 7.27853H19.1505C19.1145 4.91207 17.18 3 14.8045 3C12.429 3 10.4945 4.91207 10.4585 7.27853H7.86708C7.55215 7.27853 7.29121 7.51697 7.26421 7.8319L6.0045 22.0172C6.0045 22.0352 6 22.0532 6 22.0712C6 23.6863 7.48016 25 9.30225 25H20.3068C22.1288 25 23.609 23.6863 23.609 22.0712C23.609 22.0532 23.609 22.0352 23.6045 22.0172ZM14.8045 4.21472C16.5096 4.21472 17.8998 5.58241 17.9358 7.27853H11.6732C11.7092 5.58241 13.0994 4.21472 14.8045 4.21472ZM20.3068 23.7853H9.30225C8.15951 23.7853 7.23272 23.0294 7.21472 22.0982L8.42045 8.49775H10.454V10.3423C10.454 10.6798 10.7239 10.9497 11.0614 10.9497C11.3988 10.9497 11.6687 10.6798 11.6687 10.3423V8.49775H17.9358V10.3423C17.9358 10.6798 18.2057 10.9497 18.5432 10.9497C18.8806 10.9497 19.1505 10.6798 19.1505 10.3423V8.49775H21.1841L22.3943 22.0982C22.3763 23.0294 21.445 23.7853 20.3068 23.7853Z" fill="#6B422B"/>
<circle cx="23" cy="7" r="7" fill="#F9A82F"/>
<path d="M40.6934 20H39V13.4727L36.9785 14.0996V12.7227L40.5117 11.457H40.6934V20ZM43.7227 15.8047L44.2148 11.4688H48.9961V12.8809H45.6035L45.3926 14.7148C45.7949 14.5 46.2227 14.3926 46.6758 14.3926C47.4883 14.3926 48.125 14.6445 48.5859 15.1484C49.0469 15.6523 49.2773 16.3574 49.2773 17.2637C49.2773 17.8145 49.1602 18.3086 48.9258 18.7461C48.6953 19.1797 48.3633 19.5176 47.9297 19.7598C47.4961 19.998 46.9844 20.1172 46.3945 20.1172C45.8789 20.1172 45.4004 20.0137 44.959 19.8066C44.5176 19.5957 44.168 19.3008 43.9102 18.9219C43.6562 18.543 43.5215 18.1113 43.5059 17.627H45.1816C45.2168 17.9824 45.3398 18.2598 45.5508 18.459C45.7656 18.6543 46.0449 18.752 46.3887 18.752C46.7715 18.752 47.0664 18.6152 47.2734 18.3418C47.4805 18.0645 47.584 17.6738 47.584 17.1699C47.584 16.6855 47.4648 16.3145 47.2266 16.0566C46.9883 15.7988 46.6504 15.6699 46.2129 15.6699C45.8105 15.6699 45.4844 15.7754 45.2344 15.9863L45.0703 16.1387L43.7227 15.8047ZM55.0723 14.9844H55.9746C56.4043 14.9844 56.7227 14.877 56.9297 14.6621C57.1367 14.4473 57.2402 14.1621 57.2402 13.8066C57.2402 13.4629 57.1367 13.1953 56.9297 13.0039C56.7266 12.8125 56.4453 12.7168 56.0859 12.7168C55.7617 12.7168 55.4902 12.8066 55.2715 12.9863C55.0527 13.1621 54.9434 13.3926 54.9434 13.6777H53.25C53.25 13.2324 53.3691 12.834 53.6074 12.4824C53.8496 12.127 54.1855 11.8496 54.6152 11.6504C55.0488 11.4512 55.5254 11.3516 56.0449 11.3516C56.9473 11.3516 57.6543 11.5684 58.166 12.002C58.6777 12.4316 58.9336 13.0254 58.9336 13.7832C58.9336 14.1738 58.8145 14.5332 58.5762 14.8613C58.3379 15.1895 58.0254 15.4414 57.6387 15.6172C58.1191 15.7891 58.4766 16.0469 58.7109 16.3906C58.9492 16.7344 59.0684 17.1406 59.0684 17.6094C59.0684 18.3672 58.791 18.9746 58.2363 19.4316C57.6855 19.8887 56.9551 20.1172 56.0449 20.1172C55.1934 20.1172 54.4961 19.8926 53.9531 19.4434C53.4141 18.9941 53.1445 18.4004 53.1445 17.6621H54.8379C54.8379 17.9824 54.957 18.2441 55.1953 18.4473C55.4375 18.6504 55.7344 18.752 56.0859 18.752C56.4883 18.752 56.8027 18.6465 57.0293 18.4355C57.2598 18.2207 57.375 17.9375 57.375 17.5859C57.375 16.7344 56.9062 16.3086 55.9688 16.3086H55.0723V14.9844ZM60.4922 15.8047L60.9844 11.4688H65.7656V12.8809H62.373L62.1621 14.7148C62.5645 14.5 62.9922 14.3926 63.4453 14.3926C64.2578 14.3926 64.8945 14.6445 65.3555 15.1484C65.8164 15.6523 66.0469 16.3574 66.0469 17.2637C66.0469 17.8145 65.9297 18.3086 65.6953 18.7461C65.4648 19.1797 65.1328 19.5176 64.6992 19.7598C64.2656 19.998 63.7539 20.1172 63.1641 20.1172C62.6484 20.1172 62.1699 20.0137 61.7285 19.8066C61.2871 19.5957 60.9375 19.3008 60.6797 18.9219C60.4258 18.543 60.291 18.1113 60.2754 17.627H61.9512C61.9863 17.9824 62.1094 18.2598 62.3203 18.459C62.5352 18.6543 62.8145 18.752 63.1582 18.752C63.541 18.752 63.8359 18.6152 64.043 18.3418C64.25 18.0645 64.3535 17.6738 64.3535 17.1699C64.3535 16.6855 64.2344 16.3145 63.9961 16.0566C63.7578 15.7988 63.4199 15.6699 62.9824 15.6699C62.5801 15.6699 62.2539 15.7754 62.0039 15.9863L61.8398 16.1387L60.4922 15.8047ZM72.1406 16.7891H73.1074V18.1543H72.1406V20H70.4473V18.1543H66.9492L66.873 17.0879L70.4297 11.4688H72.1406V16.7891ZM68.5605 16.7891H70.4473V13.7773L70.3359 13.9707L68.5605 16.7891ZM82.7871 16.8887C82.7871 17.8652 82.5645 18.6484 82.1191 19.2383C81.6777 19.8242 81.0801 20.1172 80.3262 20.1172C79.6855 20.1172 79.168 19.8945 78.7734 19.4492V22.4375H77.0801V13.6602H78.6504L78.709 14.2812C79.1191 13.7891 79.6543 13.543 80.3145 13.543C81.0957 13.543 81.7031 13.832 82.1367 14.4102C82.5703 14.9883 82.7871 15.7852 82.7871 16.8008V16.8887ZM81.0938 16.7656C81.0938 16.1758 80.9883 15.7207 80.7773 15.4004C80.5703 15.0801 80.2676 14.9199 79.8691 14.9199C79.3379 14.9199 78.9727 15.123 78.7734 15.5293V18.125C78.9805 18.543 79.3496 18.752 79.8809 18.752C80.6895 18.752 81.0938 18.0898 81.0938 16.7656ZM86.1387 17.6035L87.3105 13.6602H89.127L86.5781 20.9844L86.4375 21.3184C86.0586 22.1465 85.4336 22.5605 84.5625 22.5605C84.3164 22.5605 84.0664 22.5234 83.8125 22.4492V21.166L84.0703 21.1719C84.3906 21.1719 84.6289 21.123 84.7852 21.0254C84.9453 20.9277 85.0703 20.7656 85.1602 20.5391L85.3594 20.0176L83.1387 13.6602H84.9609L86.1387 17.6035ZM92.9414 14.0117C93.7539 14.0117 94.4023 14.2812 94.8867 14.8203C95.3711 15.3594 95.6133 16.0918 95.6133 17.0176V17.0996C95.6133 18.0137 95.3438 18.7461 94.8047 19.2969C94.2656 19.8477 93.541 20.123 92.6309 20.123C91.7168 20.123 90.9883 19.8262 90.4453 19.2324C89.9062 18.6348 89.6367 17.8242 89.6367 16.8008V16.5195C89.6445 15.0938 89.8848 13.9785 90.3574 13.1738C90.834 12.3652 91.5488 11.8555 92.502 11.6445C93.002 11.5352 93.3242 11.4277 93.4688 11.3223C93.6133 11.2129 93.6855 11.0625 93.6855 10.8711H95.0566C95.0566 11.4844 94.8906 11.9453 94.5586 12.2539C94.2305 12.5625 93.6445 12.8008 92.8008 12.9688C92.3008 13.0703 91.9062 13.2676 91.6172 13.5605C91.3281 13.8535 91.1328 14.2656 91.0312 14.7969C91.5703 14.2734 92.207 14.0117 92.9414 14.0117ZM92.6191 15.3828C92.2168 15.3828 91.9004 15.5176 91.6699 15.7871C91.4434 16.0566 91.3301 16.4941 91.3301 17.0996C91.3301 17.6387 91.4414 18.0508 91.6641 18.3359C91.8867 18.6172 92.209 18.7578 92.6309 18.7578C93.041 18.7578 93.3574 18.6191 93.5801 18.3418C93.8027 18.0645 93.916 17.6562 93.9199 17.1172V16.9766C93.9199 16.457 93.8047 16.0625 93.5742 15.793C93.3477 15.5195 93.0293 15.3828 92.6191 15.3828ZM96.7148 19.168C96.7148 18.8984 96.8047 18.6797 96.9844 18.5117C97.168 18.3438 97.3965 18.2598 97.6699 18.2598C97.9473 18.2598 98.1758 18.3438 98.3555 18.5117C98.5391 18.6797 98.6309 18.8984 98.6309 19.168C98.6309 19.4336 98.541 19.6504 98.3613 19.8184C98.1816 19.9824 97.9512 20.0645 97.6699 20.0645C97.3926 20.0645 97.1641 19.9824 96.9844 19.8184C96.8047 19.6504 96.7148 19.4336 96.7148 19.168Z" fill="#6B422B"/>
<path d="M20.9111 11H19.5V5.56055L17.8154 6.08301V4.93555L20.7598 3.88086H20.9111V11ZM28.0107 8.06055C28.0107 9.04362 27.8073 9.79557 27.4004 10.3164C26.9935 10.8372 26.3978 11.0977 25.6133 11.0977C24.8385 11.0977 24.2461 10.8421 23.8359 10.3311C23.4258 9.81999 23.2158 9.08757 23.2061 8.13379V6.8252C23.2061 5.83236 23.4111 5.07878 23.8213 4.56445C24.2347 4.05013 24.8288 3.79297 25.6035 3.79297C26.3783 3.79297 26.9707 4.0485 27.3809 4.55957C27.791 5.06738 28.001 5.79818 28.0107 6.75195V8.06055ZM26.5996 6.625C26.5996 6.03581 26.5182 5.60775 26.3555 5.34082C26.196 5.07064 25.9453 4.93555 25.6035 4.93555C25.2715 4.93555 25.0257 5.06413 24.8662 5.32129C24.71 5.5752 24.627 5.97396 24.6172 6.51758V8.24609C24.6172 8.82552 24.6953 9.25684 24.8516 9.54004C25.0111 9.81999 25.265 9.95996 25.6133 9.95996C25.9583 9.95996 26.2074 9.82487 26.3604 9.55469C26.5133 9.28451 26.5931 8.87109 26.5996 8.31445V6.625Z" fill="white"/>
</svg>
